PathFileType  4	(X/Y/Z) C:\Users\antoi\Documents\MyRepositories\mobilecap\ResultsAnalysis
DataRate	CameraRate	NumFrames	NumMarkers	Units	OrigDataRate	OrigDataStartFrame	OrigNumFrames
100.0	100.0	4	51	mm	100.0	50	132
Frame#	Time	r_knee			r_shank_antsup			r_ankle			r_calc			r_5meta			r_toe			L_knee			L_shank_antsup			L_ankle			L_calc			L_5meta			L_toe			r_sh2			r_sh3			r_sh4			L_sh2			L_sh3			r_thigh1			r_thigh2			r_thigh3			r_thigh4			r_thigh5			L_thigh1			L_thigh2			L_thigh3			L_thigh4			r.ASIS			r.PSIS			L.ASIS			L.PSIS			C7			R_Shoulder			L_Shoulder			R_Sternum			L_Sternum			R_humerus			R_elbow_med			R_elbow_lat			R_forearm			R_wrist_radius			R_wrist_ulna			L_humerus			L_elbow_med			L_elbow_lat			L_forearm			L_wrist_radius			L_wrist_ulna			R_HJC			L_HJC			R_HJC_reg			L_HJC_reg			
		X1	Y1	Z1	X2	Y2	Z2	X3	Y3	Z3	X4	Y4	Z4	X5	Y5	Z5	X6	Y6	Z6	X7	Y7	Z7	X8	Y8	Z8	X9	Y9	Z9	X10	Y10	Z10	X11	Y11	Z11	X12	Y12	Z12	X13	Y13	Z13	X14	Y14	Z14	X15	Y15	Z15	X16	Y16	Z16	X17	Y17	Z17	X18	Y18	Z18	X19	Y19	Z19	X20	Y20	Z20	X21	Y21	Z21	X22	Y22	Z22	X23	Y23	Z23	X24	Y24	Z24	X25	Y25	Z25	X26	Y26	Z26	X27	Y27	Z27	X28	Y28	Z28	X29	Y29	Z29	X30	Y30	Z30	X31	Y31	Z31	X32	Y32	Z32	X33	Y33	Z33	X34	Y34	Z34	X35	Y35	Z35	X36	Y36	Z36	X37	Y37	Z37	X38	Y38	Z38	X39	Y39	Z39	X40	Y40	Z40	X41	Y41	Z41	X42	Y42	Z42	X43	Y43	Z43	X44	Y44	Z44	X45	Y45	Z45	X46	Y46	Z46	X47	Y47	Z47	X48	Y48	Z48	X49	Y49	Z49	X50	Y50	Z50	X51	Y51	Z51	

50	0.49000000	304.70989	460.99980	-117.56047	308.65593	336.96900	-147.68222	170.13615	98.41818	-202.77996	119.61321	67.57405	-260.77109	274.70290	36.50171	-172.41066	315.97335	52.95642	-212.85895	624.33526	483.42166	-394.51461	696.33660	408.72766	-345.67366	726.30631	108.63399	-369.30407	692.19377	56.71963	-323.28527	859.31536	100.35983	-370.91624	881.14116	139.38231	-319.63369	273.75743	236.08594	-175.91763	253.04044	342.86234	-97.37422	201.67746	248.84022	-133.84203	646.03988	411.81710	-418.64225	677.95865	295.05283	-429.65649	469.35783	739.22662	-93.76594	449.41689	629.82090	-103.43784	397.56655	611.38404	-65.63486	364.64621	748.80884	-47.76168	346.89479	636.21928	-59.48512	546.40602	766.64798	-410.31142	618.89022	651.11527	-402.25470	452.52926	714.31947	-443.63382	527.80728	595.38986	-430.58963	503.86636	910.53004	-117.31615	323.88373	958.14252	-197.30191	523.92623	916.46794	-357.32004	330.08480	952.02941	-314.26446	356.23644	1410.13319	-228.18582	416.49434	1374.21748	-80.77531	411.03552	1386.11875	-390.44202	485.12332	1358.42457	-215.39501	485.60835	1357.65448	-259.14743	459.22779	1255.80962	-15.28863	432.30003	1042.99704	-46.28396	461.64066	1062.89099	20.69666	570.16543	995.31808	27.26800	655.01175	935.36070	18.72534	633.98683	908.11487	36.34007	399.40792	1237.18129	-459.02078	310.07491	1063.42412	-385.02679	305.43810	1074.39614	-458.73636	316.35343	983.13334	-498.65822	305.82494	851.37273	-506.70063	274.71003	858.59086	-514.73010	415.63833	840.41362	-149.25948	435.85042	838.75789	-337.54196	432.91094	853.02157	-151.40930	441.31921	844.73210	-309.97016	
51	0.50000000	311.79960	460.65037	-117.38490	313.53635	336.22416	-147.19037	170.92514	99.97467	-202.29462	120.14990	69.58210	-260.32400	274.81540	36.40332	-172.09673	316.15868	52.55661	-212.56477	634.00795	479.84310	-394.40528	708.13342	407.78862	-345.25791	747.47753	108.24338	-364.60858	715.55692	55.49681	-317.72137	881.49519	104.26522	-366.71925	901.61917	144.44624	-316.02059	276.92771	236.00054	-175.27521	257.91602	343.34338	-97.18520	204.90511	250.23993	-133.65310	657.30659	408.35998	-417.82854	692.70604	292.32586	-427.32345	479.82611	737.01516	-93.06883	458.76463	627.84010	-102.39091	406.36139	610.04917	-64.87257	374.80198	747.80310	-47.34910	355.53615	635.18933	-58.96139	560.34212	764.12518	-409.53763	630.88502	647.36875	-401.09301	466.06070	713.41712	-444.08638	539.20597	593.14939	-430.58024	515.99535	908.30042	-116.44135	336.49736	955.75246	-198.14096	537.71398	914.71824	-356.55622	343.56335	949.66233	-315.03195	368.96036	1408.09008	-228.05917	429.41152	1371.93294	-80.60078	423.83798	1383.78671	-390.37498	497.88542	1356.15800	-215.26108	498.38848	1355.37975	-259.02625	472.46508	1253.55398	-15.36194	445.99986	1040.58671	-45.89543	475.42447	1060.73770	20.90246	584.42210	993.95983	27.06509	669.63556	934.73598	17.88026	648.99002	907.27392	35.79531	411.42391	1234.85314	-458.82189	320.82891	1061.86169	-384.47440	316.22217	1072.80011	-458.15217	326.04566	981.56880	-498.07522	313.26126	849.79341	-505.84419	282.72582	857.47720	-514.06165	428.08044	838.09617	-149.40982	449.78847	836.72387	-337.52565	445.27317	850.86738	-151.10395	454.86754	842.59865	-309.77792	
52	0.51000000	319.22221	460.36018	-117.24913	318.74843	335.58720	-146.72903	171.84581	101.78405	-201.79786	120.84373	71.88579	-259.83105	274.98268	36.29747	-171.75710	316.39283	52.07521	-212.26555	643.90300	476.49660	-394.11374	719.70045	406.37515	-344.77313	765.66583	107.30439	-359.92881	735.66474	54.03974	-311.93122	900.48667	106.52591	-362.90074	919.36740	147.75167	-312.86906	280.35964	236.03832	-174.65882	263.08882	343.95593	-97.05358	208.34354	251.85315	-133.56494	668.26438	404.72827	-416.85052	706.24195	289.23997	-424.84824	490.49910	734.85092	-92.41054	468.34142	625.88600	-101.34535	415.32610	608.69163	-64.18833	385.15736	746.79121	-47.10826	364.29928	634.17306	-58.63022	574.50805	761.95178	-408.63065	643.29908	644.13083	-399.73267	479.99321	712.69633	-444.51734	551.21490	591.27515	-430.43744	528.32082	906.02656	-115.49020	349.40009	953.34343	-198.96961	551.67512	913.08651	-355.74177	357.25967	947.40391	-315.76044	381.74309	1406.06375	-228.00213	442.36612	1369.71696	-80.49194	436.69754	1381.51211	-390.37153	510.73322	1353.97926	-215.18511	511.21649	1353.17784	-258.95767	485.65547	1251.33742	-15.50680	459.49241	1038.23538	-45.65603	489.01872	1058.60557	20.96717	598.33078	992.37229	26.78226	683.77389	933.66125	17.10080	663.40311	906.05530	35.23365	423.58081	1232.59029	-458.68788	331.95604	1060.23605	-383.95140	327.28177	1071.19229	-457.60603	336.12186	980.00806	-497.55901	321.35027	848.21237	-505.04542	291.44806	856.28286	-513.41238	440.73455	835.75336	-149.58491	463.95261	834.79388	-337.52217	457.88818	848.63572	-150.74282	468.57886	840.55853	-309.56159	
53	0.52000000	326.97197	460.13610	-117.14495	324.33272	335.08967	-146.29711	172.95514	103.82355	-201.28599	121.70449	74.52447	-259.29277	275.20985	36.19463	-171.39008	316.70599	51.50047	-211.94521	654.25690	473.44585	-393.47391	731.16760	404.42932	-344.06710	780.92226	105.60859	-355.46281	752.39527	52.14261	-306.36285	916.32516	106.91712	-359.39240	934.45627	149.00930	-309.99359	284.06801	236.21852	-174.07667	268.58131	344.71733	-96.97115	212.01690	253.70546	-133.58641	679.07380	401.01284	-415.60813	718.65282	285.82987	-422.27376	501.34777	732.73252	-91.75132	478.12926	623.96567	-100.33398	424.47171	607.35423	-63.63845	395.72167	745.80813	-47.12249	373.24339	633.24576	-58.58811	588.85102	760.07882	-407.65893	656.15887	641.39953	-398.20153	494.28027	712.04025	-444.89884	563.87966	589.67770	-430.10116	540.89451	903.70619	-114.52122	362.61620	950.97471	-199.75347	565.80077	911.56880	-354.92574	371.17891	945.31307	-316.41566	394.55696	1404.02367	-228.04178	455.33729	1367.59398	-80.45007	449.59745	1379.32601	-390.42039	523.65158	1351.91240	-215.16099	524.08210	1351.07843	-258.93682	498.76815	1249.20005	-15.70003	472.76021	1035.99525	-45.58319	502.41593	1056.52647	20.89194	611.88871	990.58539	26.40993	697.41022	932.14615	16.38062	677.21962	904.46566	34.64913	435.87919	1230.42488	-458.61916	343.45900	1058.57558	-383.46288	338.61755	1069.61307	-457.10225	346.59163	978.46420	-497.10687	330.17096	846.66018	-504.34525	300.83011	855.04156	-512.80588	453.62363	833.41095	-149.79750	478.30013	832.99486	-337.55153	470.77210	846.34926	-150.37379	482.44396	838.63498	-309.36168	
